@startuml ClassDiagram.PractitionerRole
skinparam monochrome true

class PractitionerRole {
  {field} practitioner (1..1, MS, LDAP)
  {field} location (0.., MS)
  {field} endpoint (0.., MS)
  {field} healthcareService(0.., MS)
}
class HealthcareService1 {
  {field} providedBy (1..1, MS, LDAP)
  {field} speciality (0.., MS, LDAP)
  {field} location (0.., MS, LDAP)
  {field} name (..1, MS)
  {field} telecom (0.., MS)
  {field} serviceProvisionCode (0.., MS)
  {field} communication (0.., MS)
  {field} appointmentRequired (..1, MS)
  {field} availableTime (0.., MS)
  {field} availabilityExceptions (0.., MS)
  {field} endpoint (0.., MS)
}
class Practitioner {
  {field} identifier (1.., MS, LDAP)
  {field} active (1..1, MS, LDAP)
  {field} name (1..1, MS, LDAP)
  {field} telecom (0.., MS)
  {field} gender (..1, MS)
  {field} birthDate (..1, MS)
  {field} photo (0.., MS)
  {field} qualification (0.., MS, LDAP)
  {field} communication (0.., MS)
}
class Endpoint {
  {field} status (1..1, MS)
  {field} connectionType (1..1, MS)
  {field} name (1..1, MS)
  {field} managingOrganization (0..1, MS)
  {field} payloadType (1.., MS)
  {field} address (1..1, MS)
}
class Location {
  {field} name (..1, MS)
  {field} description (..1, MS)
  {field} address (..1, MS)
  {field} position (..1, MS)
  {field} hoursOfOperation (0.., MS)
  {field} availabilityExceptions (..1, MS)
}
class Endpoint1 {
  {field} status (1..1, MS)
  {field} connectionType (1..1, MS)
  {field} name (1..1, MS)
  {field} managingOrganization (0.., MS)
  {field} payloadType (1.., MS)
  {field} address (1..1, MS)
}
class Location1 {
  {field} name (..1, MS)
  {field} description (0..1, MS)
  {field} address (0..1, MS, LDAP)
  {field} position (0..1, MS)
  {field} hoursOfOperation (0.., MS)
  {field} availabilityExceptions (..1, MS)
}
class Organization {
  {field} identifier (0.., MS, LDAP)
  {field} active (1..1, MS, LDAP)
  {field} type (1..1, MS, LDAP)
  {field} name (1..1, MS, LDAP)
  {field} alias (0.., MS, LDAP)
  {field} telecom (0.., MS)
  {field} contact (0.., MS)
}

PractitionerRole o-- Practitioner: practitioner
PractitionerRole o-- Endpoint: endpoint
PractitionerRole o-- Location: location


HealthcareService1 o-- Organization: providedBy
HealthcareService1 o-- Endpoint1: endpoint
HealthcareService1 o-- Location1: location

PractitionerRole -right-> HealthcareService1: healthcareService
@enduml
